<svg id="Layer_1" data-name="Layer 1" xmlns="http://www.w3.org/2000/svg" viewBox="0 0 252.5 295.56"><path d="M-431.21,586c-1.51-1.56-3.31-2.94-4.49-4.72-4.17-6.34-8.13-12.82-12.19-19.23-4.18-6.58-10.17-9.89-18-10.15s-15.57-.62-23.34-1c-6.27-.34-8.2-3.82-5.06-9.3,7.59-13.25,15.28-26.44,22.93-39.65q6.85-11.84,13.71-23.68c1.58-2.74,1.37-3.09-1.69-4.21a82.32,82.32,0,0,1-8.75-3.58c-5.4-2.72-6.91-7.54-6.15-13.11.67-4.94,1.68-9.84,2.75-14.7,1.34-6-.33-11.17-4.16-15.81-3-3.63-6-7.27-8.89-11-4.34-5.56-4.24-11.38-.36-17.06a143.93,143.93,0,0,1,8.88-11.7c4.69-5.53,6.35-11.56,4.57-18.71a108.09,108.09,0,0,1-2.47-14.44c-.68-6.17,2.47-10.32,8-12.58a135.59,135.59,0,0,1,13-4.56,18.86,18.86,0,0,0,13.47-13c1-3.09,2.16-6.15,3.33-9.19,4-10.46,8.79-12.94,19.65-10.43,4.48,1,9,2,13.5,2.89a10.67,10.67,0,0,0,8.64-2.1c6.21-4.48,12.52-8.85,19-12.86,4.67-2.87,9.51-1.81,13.79,1.25,3.9,2.79,7.67,5.78,11.35,8.87a18.19,18.19,0,0,0,16.92,4c4.84-1.16,9.71-2.29,14.63-3,6.6-1,10.72,1.21,13.53,7.25a141.11,141.11,0,0,1,5.25,13.38,18.49,18.49,0,0,0,12.93,12.39,135,135,0,0,1,13.31,4.61c6.52,2.73,9.06,7.37,8,14.23-.62,4.17-1.29,8.35-2.32,12.43a20.7,20.7,0,0,0,4.1,18.92c3.33,4.22,6.47,8.6,9.51,13,3.81,5.56,3.64,11.15-.52,16.51-2.47,3.18-4.87,6.45-7.63,9.39-5.42,5.8-6.71,12.35-4.92,20a102.54,102.54,0,0,1,2.3,15.3c.39,5-2.59,8.31-6.83,10.42a82.56,82.56,0,0,1-7.76,3c-1.05.4-2.12.76-3.37,1.21l20.37,35,17.11,29.37a26.28,26.28,0,0,1,1.61,3.06c1.59,3.88-.14,7.11-4.35,7.43-7.76.58-15.54.92-23.33,1.15-5.33.16-10.34,1.2-14.48,4.72a26.26,26.26,0,0,0-4.93,5.54c-4.27,6.51-8.29,13.17-12.46,19.74-3.74,5.89-7.78,5.84-11.29-.18q-18.51-31.73-37-63.49c-.62-1.07-1.31-2.1-2.14-3.43-1.14.83-2.15,1.51-3.08,2.27-8.66,7.09-14.86,7.38-23.89.71-5-3.7-4.31-3.22-7.13,1.62-12,20.59-23.85,41.23-35.86,61.79-1.18,2-3,3.6-4.6,5.38Zm61.44-93.34c46.88.42,87.48-38.46,86.42-88.51-1-45.7-37.65-84.09-85.64-84.19a86.13,86.13,0,0,0-86.89,84.88C-456.58,454.71-416.95,492.88-369.77,492.67Z" transform="translate(495.74 -290.45)"/><path d="M-369.87,479.28c-38.29.59-72.14-32.41-72.87-70.8-.81-41.75,31.57-73.64,69.8-75.16a73.26,73.26,0,0,1,76.45,74.16A72.63,72.63,0,0,1-369.87,479.28Zm-29.63-33.71c-.07,4.8,2.33,6.45,6.21,4.6,4.93-2.35,9.7-5.05,14.57-7.54a20.25,20.25,0,0,1,19.32,0c4.78,2.44,9.47,5.08,14.31,7.41,4.34,2.1,6.86.35,6.3-4.42-.61-5.24-1.53-10.44-2.47-15.63-1.39-7.63.86-14,6.36-19.32q5.17-5,10.32-10.07c1.53-1.51,3.45-3.41,2.21-5.43-.91-1.5-3.23-2.56-5.11-3-4.3-.93-8.71-1.39-13.09-1.93-8.5-1.07-14.59-5.31-18.13-13.23A128.69,128.69,0,0,0-364.78,365c-.92-1.59-2.85-3.76-4.17-3.67-1.6.12-3.53,2.09-4.46,3.74-2.6,4.58-4.63,9.48-7.12,14.13a19.74,19.74,0,0,1-14.86,10.66c-5.11.83-10.28,1.34-15.35,2.39-1.86.38-4.3,1.56-5,3-.53,1.2.83,3.77,2.05,5.1,3.36,3.69,7.07,7.06,10.66,10.54,5.62,5.47,7.45,12.08,6,19.72C-397.91,435.81-398.73,441-399.5,445.57Z" transform="translate(495.74 -290.45)"/></svg>