<svg id="Layer_1" data-name="Layer 1" xmlns="http://www.w3.org/2000/svg" viewBox="0 0 303.82 383.3"><path d="M-199.83,227.68c7.34,1.23,14.81,2,22,3.77,57.32,14.41,95.75,49.81,112.27,106.38,15,51.29,3.71,98.31-30.24,139.68a12,12,0,0,0-3.08,8.33c.14,25.2.08,50.4.08,75.6v4.3c-15.38,1.11-30.19-.27-44.87-6.16v50.86c-20.42,1.95-43.77-.94-67.47-19a91.49,91.49,0,0,1-31.54,16.21c-11.52,3.32-23.32,3.66-35.74,3.08V560.36c-7.58,1.68-14.75,3.79-22.08,4.76s-14.87.85-22.84,1.23v-4.53c0-25.83.05-51.65-.09-77.47a9.31,9.31,0,0,0-2.08-5.58,153.33,153.33,0,0,1-35.81-78.45c-9.33-62.21,23.91-126.71,79.94-155.38,17.83-9.12,36.58-14.95,56.58-16.62a14.8,14.8,0,0,0,2.5-.64ZM-82.12,379.13c-.12-71.19-57.8-128.93-128.87-129s-129.12,58-129,129.24,57.81,128.93,128.87,129S-82,450.35-82.12,379.13ZM-211.64,560.45c7,6,13.44,12.12,20.55,17.26a53.42,53.42,0,0,0,24.79,9.52v-63a153.34,153.34,0,0,1-89.5,0v63.08C-237,584.51-223.28,573.8-211.64,560.45Zm-89-58.35v41.39c7.39-2.92,14.18-5.54,20.88-8.35.71-.3,1.29-1.75,1.32-2.68.12-5.11.1-10.23,0-15.34a3.42,3.42,0,0,0-1-2.53C-286.47,510.37-293.53,506.28-300.67,502.1Zm179.23,40.28V502.1c-7.09,4.17-14.06,8.2-20.92,12.39a3.68,3.68,0,0,0-1.28,2.72q-.2,7.66,0,15.33a3.6,3.6,0,0,0,1.39,2.64A59.14,59.14,0,0,0-121.44,542.38Z" transform="translate(362.87 -227.68)"/><path d="M-211,272.62c3.16,5.73,6,10.84,8.78,15.95,7.58,13.87,15.21,27.73,22.7,41.65a6.79,6.79,0,0,0,5.34,3.88c21.28,3.89,42.54,7.95,64.53,12.1-1.13,1.3-1.91,2.29-2.77,3.2q-21.18,22.46-42.4,44.86a6.29,6.29,0,0,0-1.89,5.91c2.9,21.34,5.56,42.71,8.28,64.07,0,.22-.13.45-.35,1.12-6-2.81-11.9-5.59-17.81-8.39-13.73-6.49-27.47-13-41.14-19.54a6.87,6.87,0,0,0-6.64.05c-18.5,8.88-37.07,17.63-55.62,26.41-1.08.51-2.21.92-3.81,1.58,1.41-10.92,2.73-21.25,4.07-31.59,1.53-11.85,3.15-23.69,4.49-35.56.14-1.26-1.07-2.92-2.08-4q-21.1-22.51-42.34-44.92c-.83-.87-1.58-1.82-2.73-3.15l33-6.24c10.88-2,21.78-4,32.62-6.22a7,7,0,0,0,3.95-3.32c10-18,19.78-36,29.64-54C-212.64,275.37-212,274.33-211,272.62Zm-56.76,88.23c7.53,8,14.32,15.83,21.79,22.92,4,3.86,4.73,7.67,3.9,12.82-1.64,10.13-2.7,20.34-4.06,31,11.16-5.28,21.81-10.41,32.56-15.31a6.91,6.91,0,0,1,5.1,0c9.63,4.36,19.15,9,28.71,13.5,1.13.54,2.32.95,3.73,1.52-1.53-12.2-3.07-23.92-4.38-35.67a6.41,6.41,0,0,1,1.47-4.5c7.23-7.91,14.66-15.66,22-23.47.72-.77,1.34-1.62,2.18-2.65a17,17,0,0,0-2.09-.72c-10.88-2.06-21.78-4-32.62-6.21a7,7,0,0,1-4.19-2.94c-4-6.88-7.72-13.94-11.55-20.92-1.83-3.33-3.69-6.64-5.79-10.41-.95,1.57-1.61,2.57-2.19,3.63-5,9.17-10,18.38-15.13,27.49A6.75,6.75,0,0,1-232,354c-5.44,1.29-11,2.14-16.47,3.18C-254.71,358.33-260.9,359.53-267.77,360.85Z" transform="translate(362.87 -227.68)"/></svg>