<svg id="Layer_1" data-name="Layer 1" xmlns="http://www.w3.org/2000/svg" viewBox="0 0 657.82 512"><path d="M-116.54,156.79c16.15,3.08,26.7,14.81,38.29,24.92,5.27,4.59,10.39,9.38,15.79,13.81a9,9,0,0,0,5.68,2.07c18.08-1.23,36.18-2.43,54.21-4.22,22.71-2.25,42.85,10.9,48.82,33,4,14.92,7.44,30,11,45.05a10.36,10.36,0,0,0,5.21,7.26c15.79,9.23,31.44,18.71,47.12,28.12,10.43,6.26,17.58,15.1,20.9,26.89.4,1.42.61,2.89,1,5-10.16,0-19.89,0-29.63,0a3.62,3.62,0,0,1-1.83-.55C80.66,326,61.48,313.48,41.88,301.66c-7-4.2-11-9.44-12.66-17.36-3.38-15.75-7.35-31.38-11.14-47.05C15.55,226.8,10.51,222.9-.07,223.66c-20.9,1.48-41.78,3.15-62.67,4.81A17,17,0,0,1-76,224c-11.57-10.29-23.21-20.5-34.78-30.79-9.39-8.36-15.94-8.45-25.3-.18-11.48,10.15-23,20.24-34.41,30.47-4.52,4.06-9.5,5.35-15.58,4.82-20.87-1.82-41.77-3.34-62.67-4.75-8.12-.55-13.2,3.21-15.67,11-6,18.85-12,37.69-17.74,56.61a20.69,20.69,0,0,1-9.91,12.51q-23,13.5-45.88,27.27c-2.95,1.78-5.49,4.22-8.28,6.27a5.78,5.78,0,0,1-2.92,1.46c-9.63.11-19.26.07-29.42.07,2.39-14.14,9.68-24.32,21.3-31.47,9.2-5.67,18.57-11.06,27.84-16.62,6.41-3.85,14.34-6.52,18.7-12s5.15-13.82,7.4-20.94c3.45-10.93,6.78-21.9,10.22-32.84,6.61-21,26.53-33.67,48.59-31.49,18,1.78,36.13,3,54.21,4.22a8.93,8.93,0,0,0,5.68-2.1c7.51-6.33,15-12.73,22.14-19.44,9.32-8.72,19.05-16.59,32-19.27Z" transform="translate(451.23 -156.79)"/><path d="M-130.53,668.79c-15.59-3-26-14.08-37.22-23.89-4.51-3.94-9.47-7.5-13.36-12-4.9-5.65-10.71-5.42-17.14-4.86-16.24,1.41-32.47,3-48.75,3.67-24.28,1-41.67-12.63-47.33-36.28-3.37-14.06-6.83-28.1-10.09-42.18a10.35,10.35,0,0,0-5.37-7.15q-23.06-13.46-45.85-27.32c-4.18-2.54-8-5.74-11.92-8.64l.48-1.35h12.66c11.82,0,23.64-.21,35.45.14a23.8,23.8,0,0,1,10.17,2.89c7.61,4.09,14.88,8.79,22.36,13.13a18.47,18.47,0,0,1,9.16,12.42c3.88,16.67,8,33.29,12,49.94,2.68,11.18,8.27,15.27,19.68,14.34,19.22-1.58,38.46-3,57.67-4.77a22.46,22.46,0,0,1,18.6,6.25c11.11,10.3,22.65,20.12,34.07,30.07,8.52,7.43,15.23,7.33,23.8-.21,11.75-10.33,23.55-20.62,35.2-31.06,4.22-3.78,8.85-5.62,14.54-5.15,19.39,1.61,38.81,2.87,58.17,4.7,13.55,1.27,18.81-2.16,22-15.53,3.89-16.15,7.94-32.27,11.72-48.45A17.58,17.58,0,0,1,39,525.44c.14-.08.27-.19.42-.27,9.15-5.41,17.74-12.8,27.63-15.66,9.39-2.71,20.14-.67,30.29-.7a162,162,0,0,1,23.21,1.12c-3.79,2.89-7.38,6.12-11.43,8.6q-23.17,14.22-46.63,28a10.27,10.27,0,0,0-5.24,7.21c-3.51,15-7,30.13-10.93,45-5.43,20.34-22.91,33.78-43.87,33-19.27-.72-38.48-2.74-57.73-3.86a11.56,11.56,0,0,0-7.42,2.63c-10.44,8.79-20.69,17.82-30.85,26.93-6.64,6-14.64,8.91-23,11.36Z" transform="translate(451.23 -156.79)"/><path d="M-270.13,338.77c18.83-42.16,69.29-87.16,137.4-90.82C-59,244-1.2,288,23.38,338.77c-6.55,0-12.81-.61-18.91.13-10.44,1.26-17-2.21-23.91-10.87C-45,295.87-79.16,278.93-120.1,278.11c-47.11-.94-84.89,18.59-113,56.5-2.18,2.95-4.22,4.4-8,4.26C-250.74,338.55-260.34,338.77-270.13,338.77Z" transform="translate(451.23 -156.79)"/><path d="M10.68,508.83c-32.63,42.5-74.21,66.47-126.63,68.65-58.5,2.44-105.18-21.54-142-68.68,9.76,0,18.19.6,26.49-.16,9.07-.82,15.66,2.22,22.63,8.09,51.37,43.2,127.86,40.72,176.91-5.2,1.16-1.08,2.65-2.56,4-2.58C-15.5,508.75-3.08,508.83,10.68,508.83Z" transform="translate(451.23 -156.79)"/><path d="M-59.47,359h25.93Q-28,387.7-22.42,416.38l.7-.07V359.2H3V487.75c-7.59,0-15.18.14-22.75-.17-1,0-2.5-2.24-2.79-3.65-3.77-18-7.36-36.13-11-54.2a2.3,2.3,0,0,0-1.08-1.63v59.28H-59.47Z" transform="translate(451.23 -156.79)"/><path d="M-215.76,358.89c14.31,0,28.11-.29,41.9.09,9.88.27,16.63,5.49,18.23,15.26A160.33,160.33,0,0,1-153.86,404c-.17,7-3.27,13.28-11.29,16.34C-157,423.5-155.08,430-155,437.05c.22,16.63.07,33.26.07,50.31h-25.49v-5.12q0-22.49,0-45c0-6.79-2.21-8.61-9.72-7.78v58h-25.62Zm26.28,47.55c9,.74,10.89-.94,11.06-9.41,0-1.66,0-3.32,0-5-.12-8.76-2.19-10.41-11.06-8.62Z" transform="translate(451.23 -156.79)"/><path d="M-373,359h24.73v5.37q0,43.74.05,87.47c0,3.13.07,6.5,1.22,9.3.73,1.77,3.58,3.79,5.37,3.69s4.46-2.34,5.05-4.19c1-3.24,1-6.89,1-10.38q.09-42.48,0-85v-6.14h24.55c.14,1.4.37,2.69.37,4,0,30.33.15,60.65-.1,91a62,62,0,0,1-2.65,16.65c-2.8,9.55-9.33,15.71-19.36,17.15a58.91,58.91,0,0,1-16.33.52c-12.84-1.81-20.35-9.42-23-22.22a47.34,47.34,0,0,1-1.13-9.39q-.13-47.25-.06-94.48C-373.17,361.32-373.06,360.36-373,359Z" transform="translate(451.23 -156.79)"/><path d="M-129.72,358.84c14.06,0,27.51-.07,41,.15,1.05,0,2.86,2.06,3,3.29,2.87,29.29,5.53,58.6,8.27,87.91,1.14,12.25,2.37,24.48,3.61,37.15H-98.14q-.93-9.63-2-20.1h-15.33c-.63,6.82-1.24,13.53-1.87,20.34h-24.84C-138,444.6-133.87,401.86-129.72,358.84ZM-102,446.3l-5.54-64.69h-1.3c-1.6,21.5-3.2,43-4.81,64.7Z" transform="translate(451.23 -156.79)"/><path d="M-412.86,435.18l-6-.5V413.13h30.41V488c-3.41-.39-7.47.27-9.83-1.43s-2.81-5.73-4.37-9.33c-5.34,8.05-12.36,11.84-21.67,11.6-11.42-.29-19.51-5.31-23.35-16a49.08,49.08,0,0,1-3.26-15.51c-.36-23.15-.45-46.32-.06-69.47.18-10.29,3.48-19.69,12.86-25.65,14.07-9,37.21-4.8,44.65,8,4.12,7.09,6.76,23.39,5.12,32.23H-413c0-4.42.13-8.85,0-13.28-.13-3.56-.45-7.2-5.31-7.58s-7.32,2.71-7.35,6.87q-.26,34.73.12,69.43c0,3.76,1.35,7.36,6.41,7.2s6.11-3.59,6.23-7.45C-412.7,450.35-412.86,443.05-412.86,435.18Z" transform="translate(451.23 -156.79)"/><path d="M-254.2,487.35c-.66-6.62-1.31-13.2-2-20.09h-15.28c-.61,6.5-1.24,13.18-1.9,20.19h-24.83c4.14-42.83,8.26-85.55,12.4-128.42h43.65c4,42.63,8.08,85.25,12.16,128.32Zm-9.46-105.68H-265c-1.57,21.46-3.15,42.91-4.74,64.51h11.62C-260,424.42-261.82,403-263.66,381.67Z" transform="translate(451.23 -156.79)"/><path d="M112.32,383.61v25.05h23.55V433H112.38v29.7h26.34v24.83H86.21V359.17h50.64v24.44Z" transform="translate(451.23 -156.79)"/><path d="M154.06,359h50.61v24.48H180.32V408.7h23.39V433H180.17v29.57h26.42v24.77H154.06Z" transform="translate(451.23 -156.79)"/><path d="M31.75,383.69H16.65V359.21H72.21v24.53H57.46V487.41H31.75Z" transform="translate(451.23 -156.79)"/></svg>