<svg id="Layer_1" data-name="Layer 1" xmlns="http://www.w3.org/2000/svg" viewBox="0 0 383.31 342.87"><path d="M40.34,319.37c-.61,1.85-1.18,3.72-1.84,5.55-2.07,5.75-5.16,10.95-10.08,14.57C8.85,353.9-10.34,368.92-30.65,382.21c-28.09,18.37-59.43,28.06-92.95,30.87-25.3,2.13-49.92-1.43-74.42-7.23-25.65-6.08-51.4-11.75-77.59-17.7,0,3,.05,5.67,0,8.36-.14,6.4-4.75,11.14-11.12,11.18q-22.45.1-44.91,0a11,11,0,0,1-11.29-11.38q-.06-55.95,0-111.92c0-6.79,4.73-11.4,11.61-11.42,12.22,0,24.45.08,36.67-.1a9.87,9.87,0,0,0,5.64-2c15.38-12.32,33-18.43,52.47-20.43s37.22,3.15,55.13,9.24c26.49,9,52.95,18.13,79.7,26.31,20.35,6.22,30,24.9,25.14,42.46a16.41,16.41,0,0,0,0,2.4c6.1-3.61,11.87-6.45,17-10.15,15.49-11.14,30.68-22.69,46.1-33.91,13-9.48,29.76-8.91,41.87,1.23a33.59,33.59,0,0,1,11.15,18.16,14.77,14.77,0,0,0,.8,2Zm-316,45.45c1.36.38,2.42.72,3.51,1,29.35,6.69,58.72,13.29,88,20.07,46.2,10.68,90.36,5.35,132.13-17.22C-28.13,355.79-7.8,337.87,14,322.08c3.44-2.5,4.57-6.49,3.51-10.76-2.09-8.38-11-11.23-18.35-5.83-14.47,10.63-29,21.18-43.29,32-22.73,17.27-47.7,22.45-75,13.88-23-7.23-45.87-15-68.75-22.66a14.38,14.38,0,0,1-5.78-3.89,10.78,10.78,0,0,1-.67-13.19,11,11,0,0,1,12.78-4.51c10.54,3.35,21,6.87,31.54,10.33,12.17,4,24.32,8.08,36.51,12,6.41,2.08,11.94-.13,14.53-5.58,3.06-6.42-.3-13.23-7.89-15.74-28.1-9.31-56.28-18.36-84.29-27.94-14-4.81-28.1-8.54-43.09-7.34-14.48,1.15-27.82,5.39-39.25,14.65a5.48,5.48,0,0,0-2,3.59C-275.64,315.6-275.61,340.05-275.61,364.82Zm-44.67-69.34V385h21.93V295.48Z" transform="translate(342.97 -70.84)"/><path d="M40.34,181.59c-1.26,5.93-2,12-3.86,17.78-13,40.82-40.65,65.88-82.92,72.44-55.11,8.55-106-30.08-114.42-85.25C-169,133-131.39,81-78,72.25c54.83-9,105.25,25.65,116.56,80,.67,3.26,1.21,6.55,1.81,9.83Zm-22.45-9.66c.05-43.11-35.31-78.6-78.44-78.71s-78.62,35.21-78.79,78.35,35.4,78.92,78.62,78.92S17.83,215.05,17.89,171.93Z" transform="translate(342.97 -70.84)"/><path d="M-49.41,127.46c4.24,2.15,8.17,3.77,11.69,6,5.68,3.64,7.1,10.36,3.73,15.64s-10.07,6.79-15.75,3.3c-6.58-4.05-13.24-3.85-19.92-.64-1.41.68-2.34,2.35-3.5,3.57,1.31,1,2.48,2.52,3.94,2.89,7,1.75,14.12,3,21.09,4.78,9.38,2.47,17.44,6.93,21,16.74,4.57,12.63-1,25.22-14,32.15a17,17,0,0,1-2.72,1.22c-3.51,1.14-6,2.36-6,7.19,0,5.57-5.91,9.49-11.7,9.15a11.18,11.18,0,0,1-10.37-10.41c-.07-1.11,0-2.22,0-2.85-4.19-2.09-8.12-3.68-11.66-5.9-5.73-3.6-7.25-10.24-4-15.59s10.12-6.95,16-3.38c6.6,4,13.28,3.72,19.93.46,1.38-.67,2.24-2.41,3.34-3.66-1.25-.92-2.37-2.31-3.76-2.66-6.87-1.71-13.87-2.94-20.71-4.76a43.37,43.37,0,0,1-10.68-4.27c-16-9.35-16.77-30.69-1.44-41.76,3.18-2.3,7.08-3.57,10.52-5.55a4.81,4.81,0,0,0,2.33-3c.62-7.53,4.87-12,11.57-12,6.46.11,10.73,4.82,11,12.1C-49.49,126.8-49.42,127.29-49.41,127.46Z" transform="translate(342.97 -70.84)"/></svg>