<svg id="Layer_1" data-name="Layer 1" xmlns="http://www.w3.org/2000/svg" viewBox="0 0 383.81 383.14"><path d="M-189,578c-8-2.06-15.17-5.55-20.25-12.42-1-1.38-2-2.81-3.13-4.45-7.48,5.12-15.56,7.43-24.46,6a31.25,31.25,0,0,1-18.16-9.6c-10.88-11.54-11.54-25.11-2.08-42.18-21.23-18.7-22.2-33.68-3.52-55.28-3.5-4.13-7.22-8.13-10.5-12.47A89.12,89.12,0,0,1-288,408.14a11.64,11.64,0,0,0-3.09-6.05c-9.27-9.07-18.76-17.91-28-26.64L-203.69,260c5.18,5.21,10.73,10.57,16,16.2a11.45,11.45,0,0,0,8.14,3.67c7.18.57,14.54.77,21.41,2.65,6.23,1.71,11.86,5.54,17.84,8.25a12.11,12.11,0,0,0,5.39,1.17c6.09-.31,12.16-1.43,18.22-1.35,24.4.31,45.09-8,61.89-25.76,1.61-1.72,3-3.62,5.26-6.3a38.4,38.4,0,0,0,3,4.17Q7.54,316.91,61.69,371c1,.95,2.05,1.74,3.07,2.61v.75c-7.12,7.13-14,14.49-21.42,21.34a33.16,33.16,0,0,0-10.68,18.8c-3.61,18.1-13.2,33.18-26.61,45.77-2.18,2.05-2.77,4.08-2.85,7.08a58.18,58.18,0,0,1-2.12,15.34C-1.12,490-6.67,495-13.09,498.86c12.5,14.87,9.73,33.27-.28,43.81a30.74,30.74,0,0,1-18.49,9.73,31.88,31.88,0,0,1-26.67-8.15C-65,554.82-74,560.6-86.22,561s-21.19-5.91-28.87-14.67c-9.07,13.86-21.25,19.23-37.15,15.86a3.9,3.9,0,0,0-3.12,1c-6.37,7.09-13.73,12.56-23.17,14.8Zm-97.67-202.93c5.63,5.41,11.3,11,17.15,16.42a9.91,9.91,0,0,1,3.31,7.16,65.17,65.17,0,0,0,14.41,37,75.56,75.56,0,0,0,5.74,6.4q47.07,47.13,94.25,94.17a16.62,16.62,0,0,0,7.18,4.22c3.75,1,7.77-1.61,9.48-5.15,1.85-3.82,1.16-7.75-2.33-11.26q-18.72-18.86-37.55-37.61c-.87-.87-1.68-1.79-2-2.1l16.1-16.12c.54.64,1.36,1.76,2.33,2.73q31.34,31.38,62.72,62.72a21.48,21.48,0,0,0,4.29,3.58,9.37,9.37,0,0,0,14-7.16c.4-3.82-1.67-6.57-4.24-9.14q-31.92-31.84-63.78-63.78c-.94-.94-1.83-1.93-2.21-2.33l16.26-16.39a32.81,32.81,0,0,0,2.77,3.55q41.51,41.59,83.08,83.13a34.94,34.94,0,0,0,3.27,3.06A9.26,9.26,0,0,0-27.94,524c1.79-4.67-.24-8.12-3.46-11.34Q-73.78,470.37-116.12,428a18,18,0,0,0-3.28-2.14l16.71-16.67c3.52,3.59,7.24,7.43,11,11.21q27.78,27.81,55.56,55.6c2.8,2.81,5.9,4.67,10,3.62,7.88-2,9.6-10.75,3.24-17.13q-43.86-44-87.81-87.91c-1.33-1.33-2.34-1.7-4.13-.81a43.89,43.89,0,0,1-28.32,4.06c-2.24-.42-3.42.26-4.82,1.67-7.48,7.52-14.84,15.17-22.6,22.39-13,12.18-31.81,14.75-48,7.05-10.92-5.2-17.67-15.08-26.44-22.8l81.8-81.89a50,50,0,0,0-5.56-1.1c-7.46-.53-14.94-.82-22.39-1.49a9.61,9.61,0,0,1-5.1-2.29c-2.7-2.35-5-5.11-7.32-7.5Zm319.49.25L-50.47,292c-4.6,2.89-9.31,6.18-14.33,8.92-16.57,9.05-34.39,12.67-53.23,12.24-14.72-.34-27.28,4.44-37.81,15.45-17.68,18.48-36,36.29-54.17,54.34a21.53,21.53,0,0,1-3.58,2.35c9.71,7.71,20.75,7.1,29-1q15.34-15.09,30.4-30.47c2-2,3.57-2.38,6.07-1.1,6.18,3.15,12.84,4.71,19.48,2.22a36.84,36.84,0,0,0,11.27-6.93c6.09-5.45,11.64-11.51,16.91-16.81L-84,347.46l-11,10,85.92,85.94a11.77,11.77,0,0,0,1.18-1c12.16-12,19.2-26.51,20.46-43.65a10,10,0,0,1,3.25-7.18C21.59,386.19,27.28,380.6,32.81,375.32Zm-247.5,130.39c-8.15,8-16.45,15.86-24.43,24.05-3.27,3.37-2.69,8.87.54,12.23,3.38,3.51,8.94,4.26,12.47.84,8.22-8,16.06-16.32,24.06-24.52Zm28.95,29.19c-3.91,3.73-8.81,7.06-7,13.82a8.59,8.59,0,0,0,7.63,6.69c6.09.8,9.27-3.61,12.61-7.28Zm-58.69-58.75c-3.72,3.52-7.65,6.8-6.34,12.65a8.67,8.67,0,0,0,6.91,7c6.1,1.43,9.31-2.72,12.69-6.4Z" transform="translate(319.05 -194.87)"/><path d="M-221.9,206.86l20.38-9.69c4.35,9.12,8.59,18,13.05,27.36l-20.42,9.72Z" transform="translate(319.05 -194.87)"/><path d="M-51.78,197l20.4,9.71c-4.39,9.25-8.61,18.16-13,27.38l-20.41-9.66Z" transform="translate(319.05 -194.87)"/><path d="M18.68,234.41,35,250,13.83,272.17-1.08,255.12Z" transform="translate(319.05 -194.87)"/><path d="M-274.08,234.61l20.16,21-15,17-20.21-21Z" transform="translate(319.05 -194.87)"/><path d="M-115.93,224.73h-21.89V194.87h21.89Z" transform="translate(319.05 -194.87)"/></svg>