<svg width="87" height="19" viewBox="0 0 87 19" fill="none" xmlns="http://www.w3.org/2000/svg">
<path d="M0 18.642V18.148L1.95 16.536V2.808L0 1.196V0.701999H5.382V16.536L7.332 18.148V18.642H0ZM12.168 18.642L6.786 10.27L10.14 9.438L15.808 18.304L13.494 15.496L16.744 18.148V18.642H12.168ZM3.588 10.894V9.542H7.176C8.33733 9.542 9.27333 9.19533 9.984 8.502C10.6947 7.80867 11.05 6.89 11.05 5.746C11.05 4.63667 10.6947 3.75267 9.984 3.094C9.29067 2.43533 8.35467 2.106 7.176 2.106H3.38V0.701999H8.06C10.192 0.701999 11.8387 1.12667 13 1.976C14.1787 2.808 14.768 3.98667 14.768 5.512C14.768 7.08933 14.1787 8.32867 13 9.23C11.8213 10.114 10.192 10.556 8.112 10.556H7.956V10.894H3.588Z" fill="#292F42"/>
<path d="M23.9586 18.98C22.5893 18.98 21.3933 18.7113 20.3706 18.174C19.3479 17.6193 18.5419 16.8567 17.9526 15.886C17.3806 14.898 17.0946 13.7627 17.0946 12.48C17.0946 11.128 17.3979 9.94067 18.0046 8.918C18.6113 7.89533 19.4433 7.08933 20.5006 6.5C21.5753 5.91067 22.7973 5.616 24.1666 5.616C25.5359 5.616 26.7319 5.89333 27.7546 6.448C28.7946 6.98533 29.6006 7.748 30.1726 8.736C30.7446 9.70667 31.0306 10.842 31.0306 12.142C31.0306 13.4767 30.7273 14.664 30.1206 15.704C29.5139 16.7267 28.6819 17.5327 27.6246 18.122C26.5673 18.694 25.3453 18.98 23.9586 18.98ZM24.2706 17.446C24.9466 17.446 25.5359 17.2553 26.0386 16.874C26.5586 16.4753 26.9573 15.9293 27.2346 15.236C27.5293 14.5427 27.6766 13.7367 27.6766 12.818C27.6766 11.6393 27.5206 10.634 27.2086 9.802C26.8966 8.97 26.4546 8.32867 25.8826 7.878C25.3106 7.41 24.6346 7.176 23.8546 7.176C23.1786 7.176 22.5806 7.37533 22.0606 7.774C21.5579 8.15533 21.1593 8.69267 20.8646 9.386C20.5873 10.0793 20.4486 10.8853 20.4486 11.804C20.4486 12.9653 20.6046 13.9707 20.9166 14.82C21.2286 15.652 21.6706 16.302 22.2426 16.77C22.8146 17.2207 23.4906 17.446 24.2706 17.446Z" fill="#292F42"/>
<path d="M40.1324 18.98C38.7631 18.98 37.5671 18.7113 36.5444 18.174C35.5218 17.6193 34.7158 16.8567 34.1264 15.886C33.5544 14.898 33.2684 13.7627 33.2684 12.48C33.2684 11.128 33.5718 9.94067 34.1784 8.918C34.7851 7.89533 35.6171 7.08933 36.6744 6.5C37.7491 5.91067 38.9711 5.616 40.3404 5.616C41.7098 5.616 42.9058 5.89333 43.9284 6.448C44.9684 6.98533 45.7744 7.748 46.3464 8.736C46.9184 9.70667 47.2044 10.842 47.2044 12.142C47.2044 13.4767 46.9011 14.664 46.2944 15.704C45.6878 16.7267 44.8558 17.5327 43.7984 18.122C42.7411 18.694 41.5191 18.98 40.1324 18.98ZM40.4444 17.446C41.1204 17.446 41.7098 17.2553 42.2124 16.874C42.7324 16.4753 43.1311 15.9293 43.4084 15.236C43.7031 14.5427 43.8504 13.7367 43.8504 12.818C43.8504 11.6393 43.6944 10.634 43.3824 9.802C43.0704 8.97 42.6284 8.32867 42.0564 7.878C41.4844 7.41 40.8084 7.176 40.0284 7.176C39.3524 7.176 38.7544 7.37533 38.2344 7.774C37.7318 8.15533 37.3331 8.69267 37.0384 9.386C36.7611 10.0793 36.6224 10.8853 36.6224 11.804C36.6224 12.9653 36.7784 13.9707 37.0904 14.82C37.4024 15.652 37.8444 16.302 38.4164 16.77C38.9884 17.2207 39.6644 17.446 40.4444 17.446Z" fill="#292F42"/>
<path d="M48.4961 18.642V18.148L50.4461 16.536V2.808L48.4961 1.196V0.701999H53.8781V16.536L56.5301 18.148V18.642H48.4961ZM59.6241 10.608L52.9421 10.27V9.152L59.6241 8.788V10.608ZM59.7281 12.324L57.4661 10.218V9.178L59.7281 7.072H60.2481V12.324H59.7281ZM61.6001 2.392L53.0461 1.872V0.701999H61.6001V2.392ZM61.7301 4.706L58.4281 1.872V0.701999L61.7821 0.415999H62.1461L62.2501 4.706H61.7301Z" fill="#292F42"/>
<path d="M63.5552 18.642V18.252L65.7652 16.302L65.3492 17.03V8.58L66.4672 10.374L63.4772 7.852V7.384L67.8452 5.824H68.5212V17.056L68.1312 16.328L70.3152 18.252V18.642H63.5552ZM66.9872 4.056C66.3458 4.056 65.8172 3.86533 65.4012 3.484C65.0025 3.10267 64.8032 2.61733 64.8032 2.028C64.8032 1.42133 65.0025 0.935999 65.4012 0.571999C65.8172 0.190666 66.3458 0 66.9872 0C67.6458 0 68.1745 0.190666 68.5732 0.571999C68.9718 0.953332 69.1712 1.43867 69.1712 2.028C69.1712 2.61733 68.9718 3.10267 68.5732 3.484C68.1745 3.86533 67.6458 4.056 66.9872 4.056Z" fill="#292F42"/>
<path d="M79.4077 18.642V18.252L81.1757 16.12H81.4877V17.862L72.6217 6.916H74.1297V8.528L71.5037 6.37V5.98H78.4977V6.37L76.7297 8.554H76.4177V6.76L85.3097 17.706H83.8017V16.068L86.4277 18.252V18.642H79.4077ZM70.9837 18.642V18.252L74.1817 15.782V17.628H72.1017L77.4837 11.726L78.0817 12.428L74.9357 18.07V16.328H75.1957L76.8857 18.252V18.642H70.9837ZM79.5117 12.896L79.0437 12.194L82.0597 6.526V8.242H81.7997L80.1357 6.37V5.98H86.0117V6.37L82.8137 8.84V6.994H84.8937L79.5117 12.896Z" fill="#292F42"/>
</svg>
